<mxfile host="app.diagrams.net" modified="2023-10-21T13:01:58.400Z" agent="Mozilla/5.0 (Macintosh; Intel Mac OS X 10_15_7) AppleWebKit/537.36 (KHTML, like Gecko) Chrome/118.0.0.0 Safari/537.36" etag="VlbfenJs1cYvN48j9qtN" version="22.0.6" type="github">
  <diagram name="Page-1" id="c4acf3e9-155e-7222-9cf6-157b1a14988f">
    <mxGraphModel dx="2686" dy="1703" grid="1" gridSize="10" guides="1" tooltips="1" connect="1" arrows="1" fold="1" page="1" pageScale="1" pageWidth="3300" pageHeight="4681" background="#ffffff" math="0" shadow="0">
      <root>
        <mxCell id="0" />
        <mxCell id="1" style="locked=1;" parent="0" />
        <mxCell id="KpqhozgDpLtVEhbWs5ik-15" value="Irison Insurance" style="" parent="0" />
        <mxCell id="KpqhozgDpLtVEhbWs5ik-16" value="Irison Car Hire" parent="0" />
        <mxCell id="KpqhozgDpLtVEhbWs5ik-17" value="ProposedDesigns" parent="0" />
      </root>
    </mxGraphModel>
  </diagram>
</mxfile>
